STARTFONT 2.1
FONT --Athens-Regular-R-Normal--22-180-88-88-P-95-APPLE-ROMAN
SIZE 18 88 88
FONTBOUNDINGBOX 22 22 0 -4
METRICSSET 2
STARTPROPERTIES 19
FONT_ASCENT 18
FONT_DESCENT 4
PIXEL_SIZE 22
RESOLUTION_X 88
RESOLUTION_Y 88
POINT_SIZE 180
FACE_NAME "Athens Regular 18"
FOUNDRY ""
FAMILY_NAME "Athens"
WEIGHT_NAME "Regular"
RELATIVE_WEIGHT 50
SLANT "R"
SPACING "P"
SETWIDTH_NAME "Normal"
RELATIVE_SETWIDTH 50
ADD_STYLE_NAME ""
AVERAGE_WIDTH 95
CHARSET_REGISTRY "APPLE"
CHARSET_ENCODING "ROMAN"
ENDPROPERTIES
CHARS 173
STARTCHAR char00
ENCODING 0
SWIDTH 0 0
DWIDTH 0 0
BBX 0 0 0 -4
VVECTOR 0 -4
SWIDTH1 0 0
DWIDTH1 0 0
BITMAP 
ENDCHAR
STARTCHAR char09
ENCODING 9
SWIDTH 455 0
DWIDTH 10 0
BBX 0 0 10 -4
VVECTOR 10 -4
SWIDTH1 0 0
DWIDTH1 0 0
BITMAP 
ENDCHAR
STARTCHAR char0A
ENCODING 10
SWIDTH 0 0
DWIDTH 0 0
BBX 0 0 0 -4
VVECTOR 0 -4
SWIDTH1 0 0
DWIDTH1 0 0
BITMAP 
ENDCHAR
STARTCHAR char0B
ENCODING 11
SWIDTH 0 0
DWIDTH 0 0
BBX 0 0 0 -4
VVECTOR 0 -4
SWIDTH1 0 0
DWIDTH1 0 0
BITMAP 
ENDCHAR
STARTCHAR char0C
ENCODING 12
SWIDTH 0 0
DWIDTH 0 0
BBX 0 0 0 -4
VVECTOR 0 -4
SWIDTH1 0 0
DWIDTH1 0 0
BITMAP 
ENDCHAR
STARTCHAR char0D
ENCODING 13
SWIDTH 0 0
DWIDTH 0 0
BBX 0 0 0 -4
VVECTOR 0 -4
SWIDTH1 0 0
DWIDTH1 0 0
BITMAP 
ENDCHAR
STARTCHAR space
ENCODING 32
SWIDTH 227 0
DWIDTH 5 0
BBX 0 0 5 -4
VVECTOR 5 -4
SWIDTH1 0 0
DWIDTH1 0 0
BITMAP 
ENDCHAR
STARTCHAR exclam
ENCODING 33
SWIDTH 318 0
DWIDTH 7 0
BBX 2 14 3 0
VVECTOR 4 18
SWIDTH1 0 -1000
DWIDTH1 0 -22
BITMAP 
C0
C0
C0
C0
C0
C0
C0
C0
C0
C0
C0
00
C0
C0
ENDCHAR
STARTCHAR quotedbl
ENCODING 34
SWIDTH 455 0
DWIDTH 10 0
BBX 6 4 2 10
VVECTOR 5 18
SWIDTH1 0 -1000
DWIDTH1 0 -22
BITMAP 
CC
CC
CC
CC
ENDCHAR
STARTCHAR numbersign
ENCODING 35
SWIDTH 636 0
DWIDTH 14 0
BBX 10 10 2 6
VVECTOR 7 18
SWIDTH1 0 -1000
DWIDTH1 0 -22
BITMAP 
1980
1980
7FC0
7FC0
3300
3300
FF80
FF80
6600
6600
ENDCHAR
STARTCHAR dollar
ENCODING 36
SWIDTH 455 0
DWIDTH 10 0
BBX 8 19 1 -2
VVECTOR 5 18
SWIDTH1 0 -1000
DWIDTH1 0 -22
BITMAP 
18
18
7E
FF
DB
DB
D8
D8
FE
7F
1B
1B
DB
DB
DB
FF
7E
18
18
ENDCHAR
STARTCHAR percent
ENCODING 37
SWIDTH 727 0
DWIDTH 16 0
BBX 14 15 1 0
VVECTOR 8 18
SWIDTH1 0 -1000
DWIDTH1 0 -22
BITMAP 
7BFC
FFFC
CC18
CC30
CC60
FCC0
7980
0300
0678
0CFC
18CC
18CC
30CC
30FC
3078
ENDCHAR
STARTCHAR ampersand
ENCODING 38
SWIDTH 545 0
DWIDTH 12 0
BBX 9 15 1 0
VVECTOR 6 18
SWIDTH1 0 -1000
DWIDTH1 0 -22
BITMAP 
7E00
FF00
C300
C300
C000
C000
6000
EF80
CF80
C300
C300
C300
C300
FF00
7E00
ENDCHAR
STARTCHAR quotesingle
ENCODING 39
SWIDTH 273 0
DWIDTH 6 0
BBX 2 4 2 11
VVECTOR 3 18
SWIDTH1 0 -1000
DWIDTH1 0 -22
BITMAP 
C0
C0
C0
C0
ENDCHAR
STARTCHAR parenleft
ENCODING 40
SWIDTH 364 0
DWIDTH 8 0
BBX 5 20 1 -3
VVECTOR 4 18
SWIDTH1 0 -1000
DWIDTH1 0 -22
BITMAP 
18
30
60
60
C0
C0
C0
C0
C0
C0
C0
C0
C0
C0
C0
C0
60
60
30
18
ENDCHAR
STARTCHAR parenright
ENCODING 41
SWIDTH 364 0
DWIDTH 8 0
BBX 5 20 2 -3
VVECTOR 5 18
SWIDTH1 0 -1000
DWIDTH1 0 -22
BITMAP 
C0
60
30
30
18
18
18
18
18
18
18
18
18
18
18
18
30
30
60
C0
ENDCHAR
STARTCHAR asterisk
ENCODING 42
SWIDTH 409 0
DWIDTH 9 0
BBX 7 7 1 8
VVECTOR 5 18
SWIDTH1 0 -1000
DWIDTH1 0 -22
BITMAP 
10
54
38
FE
38
54
10
ENDCHAR
STARTCHAR plus
ENCODING 43
SWIDTH 409 0
DWIDTH 9 0
BBX 8 8 0 2
VVECTOR 4 18
SWIDTH1 0 -1000
DWIDTH1 0 -22
BITMAP 
18
18
18
FF
FF
18
18
18
ENDCHAR
STARTCHAR comma
ENCODING 44
SWIDTH 227 0
DWIDTH 5 0
BBX 2 4 2 -2
VVECTOR 3 18
SWIDTH1 0 -1000
DWIDTH1 0 -22
BITMAP 
C0
C0
40
80
ENDCHAR
STARTCHAR hyphen
ENCODING 45
SWIDTH 409 0
DWIDTH 9 0
BBX 7 2 1 5
VVECTOR 5 18
SWIDTH1 0 -1000
DWIDTH1 0 -22
BITMAP 
FE
FE
ENDCHAR
STARTCHAR period
ENCODING 46
SWIDTH 227 0
DWIDTH 5 0
BBX 2 2 2 0
VVECTOR 3 18
SWIDTH1 0 -1000
DWIDTH1 0 -22
BITMAP 
C0
C0
ENDCHAR
STARTCHAR slash
ENCODING 47
SWIDTH 455 0
DWIDTH 10 0
BBX 8 14 1 0
VVECTOR 5 18
SWIDTH1 0 -1000
DWIDTH1 0 -22
BITMAP 
03
03
06
06
0C
0C
18
18
30
30
60
60
C0
C0
ENDCHAR
STARTCHAR zero
ENCODING 48
SWIDTH 455 0
DWIDTH 10 0
BBX 8 14 1 0
VVECTOR 5 18
SWIDTH1 0 -1000
DWIDTH1 0 -22
BITMAP 
7E
FF
C3
C3
C3
C3
C3
C3
C3
C3
C3
C3
FF
7E
ENDCHAR
STARTCHAR one
ENCODING 49
SWIDTH 455 0
DWIDTH 10 0
BBX 4 14 3 0
VVECTOR 5 18
SWIDTH1 0 -1000
DWIDTH1 0 -22
BITMAP 
20
60
E0
E0
60
60
60
60
60
60
60
60
F0
F0
ENDCHAR
STARTCHAR two
ENCODING 50
SWIDTH 455 0
DWIDTH 10 0
BBX 8 14 1 0
VVECTOR 5 18
SWIDTH1 0 -1000
DWIDTH1 0 -22
BITMAP 
7E
FF
C3
C3
03
07
0E
1C
38
70
E0
C3
FF
FF
ENDCHAR
STARTCHAR three
ENCODING 51
SWIDTH 455 0
DWIDTH 10 0
BBX 8 14 1 0
VVECTOR 5 18
SWIDTH1 0 -1000
DWIDTH1 0 -22
BITMAP 
FF
FF
C3
C6
0C
18
3E
3F
03
03
03
C3
FF
7E
ENDCHAR
STARTCHAR four
ENCODING 52
SWIDTH 455 0
DWIDTH 10 0
BBX 8 14 1 0
VVECTOR 5 18
SWIDTH1 0 -1000
DWIDTH1 0 -22
BITMAP 
06
0E
1E
36
66
C6
FF
FF
06
06
06
06
0F
0F
ENDCHAR
STARTCHAR five
ENCODING 53
SWIDTH 455 0
DWIDTH 10 0
BBX 8 14 1 0
VVECTOR 5 18
SWIDTH1 0 -1000
DWIDTH1 0 -22
BITMAP 
FF
FF
C0
C0
C0
FE
FF
03
03
03
C3
C3
FF
7E
ENDCHAR
STARTCHAR six
ENCODING 54
SWIDTH 455 0
DWIDTH 10 0
BBX 8 14 1 0
VVECTOR 5 18
SWIDTH1 0 -1000
DWIDTH1 0 -22
BITMAP 
7E
FF
C3
C0
C0
FE
FF
C3
C3
C3
C3
C3
FF
7E
ENDCHAR
STARTCHAR seven
ENCODING 55
SWIDTH 455 0
DWIDTH 10 0
BBX 8 14 1 0
VVECTOR 5 18
SWIDTH1 0 -1000
DWIDTH1 0 -22
BITMAP 
FF
FF
C3
03
06
06
0C
0C
18
18
18
18
18
18
ENDCHAR
STARTCHAR eight
ENCODING 56
SWIDTH 455 0
DWIDTH 10 0
BBX 8 14 1 0
VVECTOR 5 18
SWIDTH1 0 -1000
DWIDTH1 0 -22
BITMAP 
7E
FF
C3
C3
C3
7E
FF
C3
C3
C3
C3
C3
FF
7E
ENDCHAR
STARTCHAR nine
ENCODING 57
SWIDTH 455 0
DWIDTH 10 0
BBX 8 14 1 0
VVECTOR 5 18
SWIDTH1 0 -1000
DWIDTH1 0 -22
BITMAP 
7E
FF
C3
C3
C3
C3
C3
FF
7F
03
03
C3
FF
7E
ENDCHAR
STARTCHAR colon
ENCODING 58
SWIDTH 227 0
DWIDTH 5 0
BBX 2 10 2 0
VVECTOR 3 18
SWIDTH1 0 -1000
DWIDTH1 0 -22
BITMAP 
C0
C0
00
00
00
00
00
00
C0
C0
ENDCHAR
STARTCHAR semicolon
ENCODING 59
SWIDTH 227 0
DWIDTH 5 0
BBX 2 12 2 -2
VVECTOR 3 18
SWIDTH1 0 -1000
DWIDTH1 0 -22
BITMAP 
C0
C0
00
00
00
00
00
00
C0
C0
40
80
ENDCHAR
STARTCHAR less
ENCODING 60
SWIDTH 364 0
DWIDTH 8 0
BBX 6 9 1 2
VVECTOR 4 18
SWIDTH1 0 -1000
DWIDTH1 0 -22
BITMAP 
0C
18
30
60
C0
60
30
18
0C
ENDCHAR
STARTCHAR equal
ENCODING 61
SWIDTH 545 0
DWIDTH 12 0
BBX 8 6 2 3
VVECTOR 6 18
SWIDTH1 0 -1000
DWIDTH1 0 -22
BITMAP 
FF
FF
00
00
FF
FF
ENDCHAR
STARTCHAR greater
ENCODING 62
SWIDTH 364 0
DWIDTH 8 0
BBX 6 9 1 2
VVECTOR 4 18
SWIDTH1 0 -1000
DWIDTH1 0 -22
BITMAP 
C0
60
30
18
0C
18
30
60
C0
ENDCHAR
STARTCHAR question
ENCODING 63
SWIDTH 500 0
DWIDTH 11 0
BBX 8 14 2 0
VVECTOR 6 18
SWIDTH1 0 -1000
DWIDTH1 0 -22
BITMAP 
7E
FF
C3
C3
03
07
0E
1C
18
18
18
00
18
18
ENDCHAR
STARTCHAR at
ENCODING 64
SWIDTH 727 0
DWIDTH 16 0
BBX 14 14 1 -2
VVECTOR 8 18
SWIDTH1 0 -1000
DWIDTH1 0 -22
BITMAP 
1FE0
7FF8
6018
C00C
C7CC
CFCC
CCCC
CCCC
CFF8
C7B0
C000
6000
7C00
1C00
ENDCHAR
STARTCHAR A
ENCODING 65
SWIDTH 545 0
DWIDTH 12 0
BBX 10 14 1 0
VVECTOR 6 18
SWIDTH1 0 -1000
DWIDTH1 0 -22
BITMAP 
3F00
7F80
6180
6180
6180
6180
7F80
7F80
6180
6180
6180
6180
F3C0
F3C0
ENDCHAR
STARTCHAR B
ENCODING 66
SWIDTH 500 0
DWIDTH 11 0
BBX 9 14 1 0
VVECTOR 6 18
SWIDTH1 0 -1000
DWIDTH1 0 -22
BITMAP 
FF00
FF80
6180
6180
6180
7F00
7F00
6180
6180
6180
6180
6180
FF80
FF00
ENDCHAR
STARTCHAR C
ENCODING 67
SWIDTH 455 0
DWIDTH 10 0
BBX 8 14 1 0
VVECTOR 5 18
SWIDTH1 0 -1000
DWIDTH1 0 -22
BITMAP 
7F
FF
C3
C3
C0
C0
C0
C0
C0
C0
C3
C3
FF
7F
ENDCHAR
STARTCHAR D
ENCODING 68
SWIDTH 500 0
DWIDTH 11 0
BBX 9 14 1 0
VVECTOR 6 18
SWIDTH1 0 -1000
DWIDTH1 0 -22
BITMAP 
FF00
FF80
6180
6180
6180
6180
6180
6180
6180
6180
6180
6180
FF80
FF00
ENDCHAR
STARTCHAR E
ENCODING 69
SWIDTH 500 0
DWIDTH 11 0
BBX 9 14 1 0
VVECTOR 6 18
SWIDTH1 0 -1000
DWIDTH1 0 -22
BITMAP 
FF80
FF80
6180
6180
6000
6000
7C00
7C00
6000
6000
6180
6180
FF80
FF80
ENDCHAR
STARTCHAR F
ENCODING 70
SWIDTH 500 0
DWIDTH 11 0
BBX 9 14 1 0
VVECTOR 6 18
SWIDTH1 0 -1000
DWIDTH1 0 -22
BITMAP 
FF80
FF80
6180
6180
6000
6000
7C00
7C00
6000
6000
6000
6000
F000
F000
ENDCHAR
STARTCHAR G
ENCODING 71
SWIDTH 455 0
DWIDTH 10 0
BBX 8 14 1 0
VVECTOR 5 18
SWIDTH1 0 -1000
DWIDTH1 0 -22
BITMAP 
7F
FF
C3
C3
C0
C0
CF
CF
C3
C3
C3
C3
FF
7F
ENDCHAR
STARTCHAR H
ENCODING 72
SWIDTH 545 0
DWIDTH 12 0
BBX 10 14 1 0
VVECTOR 6 18
SWIDTH1 0 -1000
DWIDTH1 0 -22
BITMAP 
F3C0
F3C0
6180
6180
6180
6180
7F80
7F80
6180
6180
6180
6180
F3C0
F3C0
ENDCHAR
STARTCHAR I
ENCODING 73
SWIDTH 273 0
DWIDTH 6 0
BBX 4 14 1 0
VVECTOR 3 18
SWIDTH1 0 -1000
DWIDTH1 0 -22
BITMAP 
F0
F0
60
60
60
60
60
60
60
60
60
60
F0
F0
ENDCHAR
STARTCHAR J
ENCODING 74
SWIDTH 318 0
DWIDTH 7 0
BBX 6 14 1 0
VVECTOR 4 18
SWIDTH1 0 -1000
DWIDTH1 0 -22
BITMAP 
3C
3C
18
18
18
18
18
18
18
18
18
18
F8
F0
ENDCHAR
STARTCHAR K
ENCODING 75
SWIDTH 636 0
DWIDTH 14 0
BBX 12 14 1 0
VVECTOR 7 18
SWIDTH1 0 -1000
DWIDTH1 0 -22
BITMAP 
F3E0
F3E0
6180
6300
6600
6C00
7800
6C00
6600
6300
6180
60C0
F1F0
F1F0
ENDCHAR
STARTCHAR L
ENCODING 76
SWIDTH 500 0
DWIDTH 11 0
BBX 9 14 1 0
VVECTOR 6 18
SWIDTH1 0 -1000
DWIDTH1 0 -22
BITMAP 
F000
F000
6000
6000
6000
6000
6000
6000
6000
6000
6180
6180
FF80
FF80
ENDCHAR
STARTCHAR M
ENCODING 77
SWIDTH 818 0
DWIDTH 18 0
BBX 16 14 1 0
VVECTOR 9 18
SWIDTH1 0 -1000
DWIDTH1 0 -22
BITMAP 
FFFC
FFFE
6186
6186
6186
6186
6186
6186
6186
6186
6186
6186
F3CF
F3CF
ENDCHAR
STARTCHAR N
ENCODING 78
SWIDTH 545 0
DWIDTH 12 0
BBX 10 14 1 0
VVECTOR 6 18
SWIDTH1 0 -1000
DWIDTH1 0 -22
BITMAP 
FF00
FF80
6180
6180
6180
6180
6180
6180
6180
6180
6180
6180
F3C0
F3C0
ENDCHAR
STARTCHAR O
ENCODING 79
SWIDTH 455 0
DWIDTH 10 0
BBX 8 14 1 0
VVECTOR 5 18
SWIDTH1 0 -1000
DWIDTH1 0 -22
BITMAP 
7E
FF
C3
C3
C3
C3
C3
C3
C3
C3
C3
C3
FF
7E
ENDCHAR
STARTCHAR P
ENCODING 80
SWIDTH 500 0
DWIDTH 11 0
BBX 9 14 1 0
VVECTOR 6 18
SWIDTH1 0 -1000
DWIDTH1 0 -22
BITMAP 
FF00
FF80
6180
6180
6180
6180
7F80
7F00
6000
6000
6000
6000
F000
F000
ENDCHAR
STARTCHAR Q
ENCODING 81
SWIDTH 455 0
DWIDTH 10 0
BBX 8 16 1 -2
VVECTOR 5 18
SWIDTH1 0 -1000
DWIDTH1 0 -22
BITMAP 
7E
FF
C3
C3
C3
C3
C3
C3
C3
C3
C3
C3
FF
7E
07
03
ENDCHAR
STARTCHAR R
ENCODING 82
SWIDTH 545 0
DWIDTH 12 0
BBX 10 14 1 0
VVECTOR 6 18
SWIDTH1 0 -1000
DWIDTH1 0 -22
BITMAP 
FF00
FF80
6180
6180
6180
6180
7F00
7F80
6180
6180
6180
6180
F3C0
F3C0
ENDCHAR
STARTCHAR S
ENCODING 83
SWIDTH 455 0
DWIDTH 10 0
BBX 8 14 1 0
VVECTOR 5 18
SWIDTH1 0 -1000
DWIDTH1 0 -22
BITMAP 
7F
FF
C3
C3
C0
C0
FE
7F
03
03
03
C3
FF
FE
ENDCHAR
STARTCHAR T
ENCODING 84
SWIDTH 545 0
DWIDTH 12 0
BBX 10 14 1 0
VVECTOR 6 18
SWIDTH1 0 -1000
DWIDTH1 0 -22
BITMAP 
FFC0
FFC0
CCC0
CCC0
0C00
0C00
0C00
0C00
0C00
0C00
0C00
0C00
1E00
1E00
ENDCHAR
STARTCHAR U
ENCODING 85
SWIDTH 545 0
DWIDTH 12 0
BBX 10 14 1 0
VVECTOR 6 18
SWIDTH1 0 -1000
DWIDTH1 0 -22
BITMAP 
F3C0
F3C0
6180
6180
6180
6180
6180
6180
6180
6180
6180
6180
7F80
3F00
ENDCHAR
STARTCHAR V
ENCODING 86
SWIDTH 545 0
DWIDTH 12 0
BBX 10 14 1 0
VVECTOR 6 18
SWIDTH1 0 -1000
DWIDTH1 0 -22
BITMAP 
F3C0
F3C0
6180
6180
6180
3300
3300
3300
1E00
1E00
1E00
0C00
0C00
0C00
ENDCHAR
STARTCHAR W
ENCODING 87
SWIDTH 818 0
DWIDTH 18 0
BBX 16 14 1 0
VVECTOR 9 18
SWIDTH1 0 -1000
DWIDTH1 0 -22
BITMAP 
F00F
F00F
6186
6186
6186
33CC
33CC
33CC
1E78
1E78
1E78
0C30
0C30
0C30
ENDCHAR
STARTCHAR X
ENCODING 88
SWIDTH 591 0
DWIDTH 13 0
BBX 11 14 1 0
VVECTOR 7 18
SWIDTH1 0 -1000
DWIDTH1 0 -22
BITMAP 
FBE0
FBE0
3180
3180
1B00
1B00
0E00
0E00
1B00
1B00
3180
3180
FBE0
FBE0
ENDCHAR
STARTCHAR Y
ENCODING 89
SWIDTH 545 0
DWIDTH 12 0
BBX 10 14 1 0
VVECTOR 6 18
SWIDTH1 0 -1000
DWIDTH1 0 -22
BITMAP 
F3C0
F3C0
6180
6180
3300
3300
1E00
1E00
0C00
0C00
0C00
0C00
1E00
1E00
ENDCHAR
STARTCHAR Z
ENCODING 90
SWIDTH 455 0
DWIDTH 10 0
BBX 8 14 1 0
VVECTOR 5 18
SWIDTH1 0 -1000
DWIDTH1 0 -22
BITMAP 
FF
FF
C6
06
0C
0C
18
18
30
30
60
63
FF
FF
ENDCHAR
STARTCHAR bracketleft
ENCODING 91
SWIDTH 318 0
DWIDTH 7 0
BBX 4 18 1 -2
VVECTOR 3 18
SWIDTH1 0 -1000
DWIDTH1 0 -22
BITMAP 
F0
F0
C0
C0
C0
C0
C0
C0
C0
C0
C0
C0
C0
C0
C0
C0
F0
F0
ENDCHAR
STARTCHAR backslash
ENCODING 92
SWIDTH 455 0
DWIDTH 10 0
BBX 8 14 1 0
VVECTOR 5 18
SWIDTH1 0 -1000
DWIDTH1 0 -22
BITMAP 
C0
C0
60
60
30
30
18
18
0C
0C
06
06
03
03
ENDCHAR
STARTCHAR bracketright
ENCODING 93
SWIDTH 318 0
DWIDTH 7 0
BBX 4 18 2 -2
VVECTOR 4 18
SWIDTH1 0 -1000
DWIDTH1 0 -22
BITMAP 
F0
F0
30
30
30
30
30
30
30
30
30
30
30
30
30
30
F0
F0
ENDCHAR
STARTCHAR asciicircum
ENCODING 94
SWIDTH 318 0
DWIDTH 7 0
BBX 5 3 1 11
VVECTOR 4 18
SWIDTH1 0 -1000
DWIDTH1 0 -22
BITMAP 
20
50
88
ENDCHAR
STARTCHAR underscore
ENCODING 95
SWIDTH 455 0
DWIDTH 10 0
BBX 10 1 0 0
VVECTOR 5 18
SWIDTH1 0 -1000
DWIDTH1 0 -22
BITMAP 
FFC0
ENDCHAR
STARTCHAR grave
ENCODING 96
SWIDTH 227 0
DWIDTH 5 0
BBX 3 3 1 11
VVECTOR 3 18
SWIDTH1 0 -1000
DWIDTH1 0 -22
BITMAP 
80
40
20
ENDCHAR
STARTCHAR a
ENCODING 97
SWIDTH 455 0
DWIDTH 10 0
BBX 8 10 1 0
VVECTOR 5 18
SWIDTH1 0 -1000
DWIDTH1 0 -22
BITMAP 
7C
FE
C6
06
7E
FE
C6
C6
FF
7F
ENDCHAR
STARTCHAR b
ENCODING 98
SWIDTH 409 0
DWIDTH 9 0
BBX 8 14 0 0
VVECTOR 4 18
SWIDTH1 0 -1000
DWIDTH1 0 -22
BITMAP 
E0
E0
60
60
7E
7F
63
63
63
63
63
63
7F
7E
ENDCHAR
STARTCHAR c
ENCODING 99
SWIDTH 409 0
DWIDTH 9 0
BBX 7 10 1 0
VVECTOR 5 18
SWIDTH1 0 -1000
DWIDTH1 0 -22
BITMAP 
7E
FE
C6
C0
C0
C0
C0
C6
FE
7E
ENDCHAR
STARTCHAR d
ENCODING 100
SWIDTH 455 0
DWIDTH 10 0
BBX 8 14 1 0
VVECTOR 5 18
SWIDTH1 0 -1000
DWIDTH1 0 -22
BITMAP 
0E
0E
06
06
7E
FE
C6
C6
C6
C6
C6
C6
FF
7F
ENDCHAR
STARTCHAR e
ENCODING 101
SWIDTH 409 0
DWIDTH 9 0
BBX 7 10 1 0
VVECTOR 5 18
SWIDTH1 0 -1000
DWIDTH1 0 -22
BITMAP 
7C
FE
C6
C6
FE
FE
C0
C6
FE
7C
ENDCHAR
STARTCHAR f
ENCODING 102
SWIDTH 318 0
DWIDTH 7 0
BBX 5 14 1 0
VVECTOR 4 18
SWIDTH1 0 -1000
DWIDTH1 0 -22
BITMAP 
38
78
60
60
F8
F8
60
60
60
60
60
60
F0
F0
ENDCHAR
STARTCHAR g
ENCODING 103
SWIDTH 455 0
DWIDTH 10 0
BBX 8 14 1 -4
VVECTOR 5 18
SWIDTH1 0 -1000
DWIDTH1 0 -22
BITMAP 
7F
FF
C6
C6
C6
C6
C6
C6
FE
7E
06
C6
FE
7C
ENDCHAR
STARTCHAR h
ENCODING 104
SWIDTH 455 0
DWIDTH 10 0
BBX 9 14 0 0
VVECTOR 5 18
SWIDTH1 0 -1000
DWIDTH1 0 -22
BITMAP 
E000
E000
6000
6000
7E00
7F00
6300
6300
6300
6300
6300
6300
F780
F780
ENDCHAR
STARTCHAR i
ENCODING 105
SWIDTH 273 0
DWIDTH 6 0
BBX 4 14 1 0
VVECTOR 3 18
SWIDTH1 0 -1000
DWIDTH1 0 -22
BITMAP 
60
60
00
00
E0
E0
60
60
60
60
60
60
F0
F0
ENDCHAR
STARTCHAR j
ENCODING 106
SWIDTH 227 0
DWIDTH 5 0
BBX 4 18 0 -4
VVECTOR 2 18
SWIDTH1 0 -1000
DWIDTH1 0 -22
BITMAP 
30
30
00
00
70
70
30
30
30
30
30
30
30
30
30
30
F0
E0
ENDCHAR
STARTCHAR k
ENCODING 107
SWIDTH 455 0
DWIDTH 10 0
BBX 9 14 1 0
VVECTOR 6 18
SWIDTH1 0 -1000
DWIDTH1 0 -22
BITMAP 
F000
F000
6000
6000
6700
6700
6C00
7800
7800
6C00
6600
6300
F780
F780
ENDCHAR
STARTCHAR l
ENCODING 108
SWIDTH 273 0
DWIDTH 6 0
BBX 4 14 1 0
VVECTOR 3 18
SWIDTH1 0 -1000
DWIDTH1 0 -22
BITMAP 
E0
E0
60
60
60
60
60
60
60
60
60
60
F0
F0
ENDCHAR
STARTCHAR m
ENCODING 109
SWIDTH 682 0
DWIDTH 15 0
BBX 14 10 0 0
VVECTOR 7 18
SWIDTH1 0 -1000
DWIDTH1 0 -22
BITMAP 
FFF0
FFF8
6318
6318
6318
6318
6318
6318
F7BC
F7BC
ENDCHAR
STARTCHAR n
ENCODING 110
SWIDTH 455 0
DWIDTH 10 0
BBX 9 10 0 0
VVECTOR 5 18
SWIDTH1 0 -1000
DWIDTH1 0 -22
BITMAP 
FE00
FF00
6300
6300
6300
6300
6300
6300
F780
F780
ENDCHAR
STARTCHAR o
ENCODING 111
SWIDTH 409 0
DWIDTH 9 0
BBX 7 10 1 0
VVECTOR 5 18
SWIDTH1 0 -1000
DWIDTH1 0 -22
BITMAP 
7C
FE
C6
C6
C6
C6
C6
C6
FE
7C
ENDCHAR
STARTCHAR p
ENCODING 112
SWIDTH 409 0
DWIDTH 9 0
BBX 8 14 0 -4
VVECTOR 4 18
SWIDTH1 0 -1000
DWIDTH1 0 -22
BITMAP 
FE
FF
63
63
63
63
63
63
7F
7E
60
60
F0
F0
ENDCHAR
STARTCHAR q
ENCODING 113
SWIDTH 455 0
DWIDTH 10 0
BBX 8 14 1 -4
VVECTOR 5 18
SWIDTH1 0 -1000
DWIDTH1 0 -22
BITMAP 
7F
FF
C6
C6
C6
C6
C6
C6
FE
7E
06
06
0F
0F
ENDCHAR
STARTCHAR r
ENCODING 114
SWIDTH 364 0
DWIDTH 8 0
BBX 8 10 0 0
VVECTOR 4 18
SWIDTH1 0 -1000
DWIDTH1 0 -22
BITMAP 
FE
FF
63
60
60
60
60
60
F0
F0
ENDCHAR
STARTCHAR s
ENCODING 115
SWIDTH 409 0
DWIDTH 9 0
BBX 7 10 1 0
VVECTOR 5 18
SWIDTH1 0 -1000
DWIDTH1 0 -22
BITMAP 
7E
FE
C6
C0
FC
7E
06
C6
FE
FC
ENDCHAR
STARTCHAR t
ENCODING 116
SWIDTH 318 0
DWIDTH 7 0
BBX 5 13 1 0
VVECTOR 4 18
SWIDTH1 0 -1000
DWIDTH1 0 -22
BITMAP 
60
60
60
F0
F0
60
60
60
60
60
60
78
38
ENDCHAR
STARTCHAR u
ENCODING 117
SWIDTH 455 0
DWIDTH 10 0
BBX 9 10 0 0
VVECTOR 5 18
SWIDTH1 0 -1000
DWIDTH1 0 -22
BITMAP 
E700
E700
6300
6300
6300
6300
6300
6300
7F80
3F80
ENDCHAR
STARTCHAR v
ENCODING 118
SWIDTH 455 0
DWIDTH 10 0
BBX 9 10 0 0
VVECTOR 5 18
SWIDTH1 0 -1000
DWIDTH1 0 -22
BITMAP 
F780
F780
6300
6300
3600
3600
1C00
1C00
0800
0800
ENDCHAR
STARTCHAR w
ENCODING 119
SWIDTH 682 0
DWIDTH 15 0
BBX 14 10 0 0
VVECTOR 7 18
SWIDTH1 0 -1000
DWIDTH1 0 -22
BITMAP 
F7BC
F7BC
6318
6318
6318
6318
6318
6318
7FF0
7DE0
ENDCHAR
STARTCHAR x
ENCODING 120
SWIDTH 455 0
DWIDTH 10 0
BBX 9 10 0 0
VVECTOR 5 18
SWIDTH1 0 -1000
DWIDTH1 0 -22
BITMAP 
F780
F780
6300
3600
1C00
1C00
3600
6300
F780
F780
ENDCHAR
STARTCHAR y
ENCODING 121
SWIDTH 455 0
DWIDTH 10 0
BBX 9 14 0 -4
VVECTOR 5 18
SWIDTH1 0 -1000
DWIDTH1 0 -22
BITMAP 
F780
F780
6300
6300
6300
6300
6300
6300
7F00
3F00
0300
6300
7F00
3E00
ENDCHAR
STARTCHAR z
ENCODING 122
SWIDTH 364 0
DWIDTH 8 0
BBX 7 10 0 0
VVECTOR 4 18
SWIDTH1 0 -1000
DWIDTH1 0 -22
BITMAP 
FE
FE
C6
0C
18
30
60
C6
FE
FE
ENDCHAR
STARTCHAR braceleft
ENCODING 123
SWIDTH 318 0
DWIDTH 7 0
BBX 4 18 1 -2
VVECTOR 3 18
SWIDTH1 0 -1000
DWIDTH1 0 -22
BITMAP 
30
60
60
60
60
60
60
60
60
C0
60
60
60
60
60
60
60
30
ENDCHAR
STARTCHAR bar
ENCODING 124
SWIDTH 273 0
DWIDTH 6 0
BBX 2 18 2 -2
VVECTOR 3 18
SWIDTH1 0 -1000
DWIDTH1 0 -22
BITMAP 
C0
C0
C0
C0
C0
C0
C0
C0
C0
C0
C0
C0
C0
C0
C0
C0
C0
C0
ENDCHAR
STARTCHAR braceright
ENCODING 125
SWIDTH 318 0
DWIDTH 7 0
BBX 4 18 2 -2
VVECTOR 4 18
SWIDTH1 0 -1000
DWIDTH1 0 -22
BITMAP 
C0
60
60
60
60
60
60
60
60
30
60
60
60
60
60
60
60
C0
ENDCHAR
STARTCHAR asciitilde
ENCODING 126
SWIDTH 455 0
DWIDTH 10 0
BBX 8 3 1 11
VVECTOR 5 18
SWIDTH1 0 -1000
DWIDTH1 0 -22
BITMAP 
31
7E
8C
ENDCHAR
STARTCHAR char7F
ENCODING 127
SWIDTH 0 0
DWIDTH 0 0
BBX 0 0 0 -4
VVECTOR 0 -4
SWIDTH1 0 0
DWIDTH1 0 0
BITMAP 
ENDCHAR
STARTCHAR Adieresis
ENCODING 128
SWIDTH 545 0
DWIDTH 12 0
BBX 10 17 1 0
VVECTOR 6 18
SWIDTH1 0 -1000
DWIDTH1 0 -22
BITMAP 
1200
0000
0000
3F00
7F80
6180
6180
6180
6180
6180
7F80
7F80
6180
6180
6180
F3C0
F3C0
ENDCHAR
STARTCHAR Aring
ENCODING 129
SWIDTH 545 0
DWIDTH 12 0
BBX 10 18 1 0
VVECTOR 6 18
SWIDTH1 0 -1000
DWIDTH1 0 -22
BITMAP 
0C00
1200
1200
0C00
3F00
7F80
6180
6180
6180
6180
6180
7F80
7F80
6180
6180
6180
F3C0
F3C0
ENDCHAR
STARTCHAR Ccedilla
ENCODING 130
SWIDTH 455 0
DWIDTH 10 0
BBX 8 17 1 -3
VVECTOR 5 18
SWIDTH1 0 -1000
DWIDTH1 0 -22
BITMAP 
7F
FF
C3
C3
C0
C0
C0
C0
C0
C0
C3
C3
FF
7F
18
08
10
ENDCHAR
STARTCHAR Eacute
ENCODING 131
SWIDTH 500 0
DWIDTH 11 0
BBX 9 18 1 0
VVECTOR 6 18
SWIDTH1 0 -1000
DWIDTH1 0 -22
BITMAP 
0200
0400
0800
0000
FF80
FF80
6180
6180
6000
6000
7C00
7C00
6000
6000
6180
6180
FF80
FF80
ENDCHAR
STARTCHAR Ntilde
ENCODING 132
SWIDTH 545 0
DWIDTH 12 0
BBX 10 18 1 0
VVECTOR 6 18
SWIDTH1 0 -1000
DWIDTH1 0 -22
BITMAP 
1900
2600
0000
0000
FF00
FF80
6180
6180
6180
6180
6180
6180
6180
6180
6180
6180
F3C0
F3C0
ENDCHAR
STARTCHAR Odieresis
ENCODING 133
SWIDTH 455 0
DWIDTH 10 0
BBX 8 17 1 0
VVECTOR 5 18
SWIDTH1 0 -1000
DWIDTH1 0 -22
BITMAP 
24
00
00
7E
FF
C3
C3
C3
C3
C3
C3
C3
C3
C3
C3
FF
7E
ENDCHAR
STARTCHAR Udieresis
ENCODING 134
SWIDTH 545 0
DWIDTH 12 0
BBX 10 17 1 0
VVECTOR 6 18
SWIDTH1 0 -1000
DWIDTH1 0 -22
BITMAP 
1100
0000
0000
F3C0
F3C0
6180
6180
6180
6180
6180
6180
6180
6180
6180
6180
7F80
3F00
ENDCHAR
STARTCHAR aacute
ENCODING 135
SWIDTH 455 0
DWIDTH 10 0
BBX 8 14 1 0
VVECTOR 5 18
SWIDTH1 0 -1000
DWIDTH1 0 -22
BITMAP 
04
08
10
00
7C
FE
C6
06
7E
FE
C6
C6
FF
7F
ENDCHAR
STARTCHAR agrave
ENCODING 136
SWIDTH 455 0
DWIDTH 10 0
BBX 8 14 1 0
VVECTOR 5 18
SWIDTH1 0 -1000
DWIDTH1 0 -22
BITMAP 
20
10
08
00
7C
FE
C6
06
7E
FE
C6
C6
FF
7F
ENDCHAR
STARTCHAR acircumflex
ENCODING 137
SWIDTH 455 0
DWIDTH 10 0
BBX 8 14 1 0
VVECTOR 5 18
SWIDTH1 0 -1000
DWIDTH1 0 -22
BITMAP 
10
28
44
00
7C
FE
C6
06
7E
FE
C6
C6
FF
7F
ENDCHAR
STARTCHAR adieresis
ENCODING 138
SWIDTH 455 0
DWIDTH 10 0
BBX 8 13 1 0
VVECTOR 5 18
SWIDTH1 0 -1000
DWIDTH1 0 -22
BITMAP 
24
00
00
7C
FE
C6
06
7E
FE
C6
C6
FF
7F
ENDCHAR
STARTCHAR atilde
ENCODING 139
SWIDTH 455 0
DWIDTH 10 0
BBX 8 13 1 0
VVECTOR 5 18
SWIDTH1 0 -1000
DWIDTH1 0 -22
BITMAP 
32
4C
00
7C
FE
C6
06
7E
FE
C6
C6
FF
7F
ENDCHAR
STARTCHAR aring
ENCODING 140
SWIDTH 455 0
DWIDTH 10 0
BBX 8 15 1 0
VVECTOR 5 18
SWIDTH1 0 -1000
DWIDTH1 0 -22
BITMAP 
18
24
24
18
00
7C
FE
C6
06
7E
FE
C6
C6
FF
7F
ENDCHAR
STARTCHAR ccedilla
ENCODING 141
SWIDTH 409 0
DWIDTH 9 0
BBX 7 13 1 -3
VVECTOR 5 18
SWIDTH1 0 -1000
DWIDTH1 0 -22
BITMAP 
7E
FE
C6
C0
C0
C0
C0
C6
FE
7E
18
08
10
ENDCHAR
STARTCHAR eacute
ENCODING 142
SWIDTH 409 0
DWIDTH 9 0
BBX 7 14 1 0
VVECTOR 5 18
SWIDTH1 0 -1000
DWIDTH1 0 -22
BITMAP 
08
10
20
00
7C
FE
C6
C6
FE
FE
C0
C6
FE
7C
ENDCHAR
STARTCHAR egrave
ENCODING 143
SWIDTH 409 0
DWIDTH 9 0
BBX 7 14 1 0
VVECTOR 5 18
SWIDTH1 0 -1000
DWIDTH1 0 -22
BITMAP 
20
10
08
00
7C
FE
C6
C6
FE
FE
C0
C6
FE
7C
ENDCHAR
STARTCHAR ecircumflex
ENCODING 144
SWIDTH 409 0
DWIDTH 9 0
BBX 7 14 1 0
VVECTOR 5 18
SWIDTH1 0 -1000
DWIDTH1 0 -22
BITMAP 
10
28
44
00
7C
FE
C6
C6
FE
FE
C0
C6
FE
7C
ENDCHAR
STARTCHAR edieresis
ENCODING 145
SWIDTH 409 0
DWIDTH 9 0
BBX 7 13 1 0
VVECTOR 5 18
SWIDTH1 0 -1000
DWIDTH1 0 -22
BITMAP 
24
00
00
7C
FE
C6
C6
FE
FE
C0
C6
FE
7C
ENDCHAR
STARTCHAR iacute
ENCODING 146
SWIDTH 273 0
DWIDTH 6 0
BBX 4 14 1 0
VVECTOR 3 18
SWIDTH1 0 -1000
DWIDTH1 0 -22
BITMAP 
20
40
80
00
E0
E0
60
60
60
60
60
60
F0
F0
ENDCHAR
STARTCHAR igrave
ENCODING 147
SWIDTH 273 0
DWIDTH 6 0
BBX 4 14 1 0
VVECTOR 3 18
SWIDTH1 0 -1000
DWIDTH1 0 -22
BITMAP 
80
40
20
00
E0
E0
60
60
60
60
60
60
F0
F0
ENDCHAR
STARTCHAR icircumflex
ENCODING 148
SWIDTH 273 0
DWIDTH 6 0
BBX 5 15 0 0
VVECTOR 3 18
SWIDTH1 0 -1000
DWIDTH1 0 -22
BITMAP 
20
50
88
00
00
70
70
30
30
30
30
30
30
78
78
ENDCHAR
STARTCHAR idieresis
ENCODING 149
SWIDTH 273 0
DWIDTH 6 0
BBX 4 13 1 0
VVECTOR 3 18
SWIDTH1 0 -1000
DWIDTH1 0 -22
BITMAP 
90
00
00
E0
E0
60
60
60
60
60
60
F0
F0
ENDCHAR
STARTCHAR ntilde
ENCODING 150
SWIDTH 455 0
DWIDTH 10 0
BBX 9 13 0 0
VVECTOR 5 18
SWIDTH1 0 -1000
DWIDTH1 0 -22
BITMAP 
3200
4C00
0000
FE00
FF00
6300
6300
6300
6300
6300
6300
F780
F780
ENDCHAR
STARTCHAR oacute
ENCODING 151
SWIDTH 409 0
DWIDTH 9 0
BBX 7 14 1 0
VVECTOR 5 18
SWIDTH1 0 -1000
DWIDTH1 0 -22
BITMAP 
08
10
20
00
7C
FE
C6
C6
C6
C6
C6
C6
FE
7C
ENDCHAR
STARTCHAR ograve
ENCODING 152
SWIDTH 409 0
DWIDTH 9 0
BBX 7 14 1 0
VVECTOR 5 18
SWIDTH1 0 -1000
DWIDTH1 0 -22
BITMAP 
20
10
08
00
7C
FE
C6
C6
C6
C6
C6
C6
FE
7C
ENDCHAR
STARTCHAR ocircumflex
ENCODING 153
SWIDTH 409 0
DWIDTH 9 0
BBX 7 14 1 0
VVECTOR 5 18
SWIDTH1 0 -1000
DWIDTH1 0 -22
BITMAP 
10
28
44
00
7C
FE
C6
C6
C6
C6
C6
C6
FE
7C
ENDCHAR
STARTCHAR odieresis
ENCODING 154
SWIDTH 409 0
DWIDTH 9 0
BBX 7 13 1 0
VVECTOR 5 18
SWIDTH1 0 -1000
DWIDTH1 0 -22
BITMAP 
48
00
00
7C
FE
C6
C6
C6
C6
C6
C6
FE
7C
ENDCHAR
STARTCHAR otilde
ENCODING 155
SWIDTH 409 0
DWIDTH 9 0
BBX 7 13 1 0
VVECTOR 5 18
SWIDTH1 0 -1000
DWIDTH1 0 -22
BITMAP 
32
4C
00
7C
FE
C6
C6
C6
C6
C6
C6
FE
7C
ENDCHAR
STARTCHAR uacute
ENCODING 156
SWIDTH 455 0
DWIDTH 10 0
BBX 9 14 0 0
VVECTOR 5 18
SWIDTH1 0 -1000
DWIDTH1 0 -22
BITMAP 
0400
0800
1000
0000
E700
E700
6300
6300
6300
6300
6300
6300
7F80
3F80
ENDCHAR
STARTCHAR ugrave
ENCODING 157
SWIDTH 455 0
DWIDTH 10 0
BBX 9 14 0 0
VVECTOR 5 18
SWIDTH1 0 -1000
DWIDTH1 0 -22
BITMAP 
1000
0800
0400
0000
E700
E700
6300
6300
6300
6300
6300
6300
7F80
3F80
ENDCHAR
STARTCHAR ucircumflex
ENCODING 158
SWIDTH 455 0
DWIDTH 10 0
BBX 9 14 0 0
VVECTOR 5 18
SWIDTH1 0 -1000
DWIDTH1 0 -22
BITMAP 
0800
1400
2200
0000
E700
E700
6300
6300
6300
6300
6300
6300
7F80
3F80
ENDCHAR
STARTCHAR udieresis
ENCODING 159
SWIDTH 455 0
DWIDTH 10 0
BBX 9 13 0 0
VVECTOR 5 18
SWIDTH1 0 -1000
DWIDTH1 0 -22
BITMAP 
2400
0000
0000
E700
E700
6300
6300
6300
6300
6300
6300
7F80
3F80
ENDCHAR
STARTCHAR dagger
ENCODING 160
SWIDTH 182 0
DWIDTH 4 0
BBX 3 7 0 8
VVECTOR 2 18
SWIDTH1 0 -1000
DWIDTH1 0 -22
BITMAP 
40
40
E0
40
40
40
40
ENDCHAR
STARTCHAR degree
ENCODING 161
SWIDTH 273 0
DWIDTH 6 0
BBX 4 4 1 10
VVECTOR 3 18
SWIDTH1 0 -1000
DWIDTH1 0 -22
BITMAP 
60
90
90
60
ENDCHAR
STARTCHAR cent
ENCODING 162
SWIDTH 455 0
DWIDTH 10 0
BBX 8 14 1 0
VVECTOR 5 18
SWIDTH1 0 -1000
DWIDTH1 0 -22
BITMAP 
18
18
7E
FF
DB
D8
D8
D8
D8
DB
FF
7E
18
18
ENDCHAR
STARTCHAR sterling
ENCODING 163
SWIDTH 500 0
DWIDTH 11 0
BBX 9 14 1 0
VVECTOR 6 18
SWIDTH1 0 -1000
DWIDTH1 0 -22
BITMAP 
3C00
7C00
6000
6000
6000
F800
F800
6000
6000
6000
6180
6180
FF80
FF00
ENDCHAR
STARTCHAR bullet
ENCODING 165
SWIDTH 500 0
DWIDTH 11 0
BBX 9 9 1 2
VVECTOR 6 18
SWIDTH1 0 -1000
DWIDTH1 0 -22
BITMAP 
1C00
7F00
7F00
FF80
FF80
FF80
7F00
7F00
1C00
ENDCHAR
STARTCHAR germandbls
ENCODING 167
SWIDTH 500 0
DWIDTH 11 0
BBX 9 14 1 0
VVECTOR 6 18
SWIDTH1 0 -1000
DWIDTH1 0 -22
BITMAP 
3F00
7F80
6180
6180
6180
6700
6700
6180
6180
6180
6180
6180
EF80
CF00
ENDCHAR
STARTCHAR registered
ENCODING 168
SWIDTH 545 0
DWIDTH 12 0
BBX 10 10 1 2
VVECTOR 6 18
SWIDTH1 0 -1000
DWIDTH1 0 -22
BITMAP 
3F00
4080
9C40
9240
9240
9C40
9240
9240
4080
3F00
ENDCHAR
STARTCHAR copyright
ENCODING 169
SWIDTH 545 0
DWIDTH 12 0
BBX 10 10 1 2
VVECTOR 6 18
SWIDTH1 0 -1000
DWIDTH1 0 -22
BITMAP 
3F00
4080
8C40
9240
9040
9040
9240
8C40
4080
3F00
ENDCHAR
STARTCHAR trademark
ENCODING 170
SWIDTH 500 0
DWIDTH 11 0
BBX 9 5 1 9
VVECTOR 6 18
SWIDTH1 0 -1000
DWIDTH1 0 -22
BITMAP 
E880
4D80
4A80
4880
4880
ENDCHAR
STARTCHAR acute
ENCODING 171
SWIDTH 227 0
DWIDTH 5 0
BBX 3 3 1 11
VVECTOR 3 18
SWIDTH1 0 -1000
DWIDTH1 0 -22
BITMAP 
20
40
80
ENDCHAR
STARTCHAR dieresis
ENCODING 172
SWIDTH 273 0
DWIDTH 6 0
BBX 4 1 1 13
VVECTOR 3 18
SWIDTH1 0 -1000
DWIDTH1 0 -22
BITMAP 
90
ENDCHAR
STARTCHAR AE
ENCODING 174
SWIDTH 727 0
DWIDTH 16 0
BBX 14 14 1 0
VVECTOR 8 18
SWIDTH1 0 -1000
DWIDTH1 0 -22
BITMAP 
3FFC
7FFC
618C
618C
6180
6180
7FF0
7FF0
6180
6180
618C
618C
F3FC
F3FC
ENDCHAR
STARTCHAR Oslash
ENCODING 175
SWIDTH 455 0
DWIDTH 10 0
BBX 10 14 0 0
VVECTOR 5 18
SWIDTH1 0 -1000
DWIDTH1 0 -22
BITMAP 
3F40
7F80
6180
6380
6380
6580
6580
6980
6980
7180
7180
6180
7F80
BF00
ENDCHAR
STARTCHAR yen
ENCODING 180
SWIDTH 545 0
DWIDTH 12 0
BBX 10 14 1 0
VVECTOR 6 18
SWIDTH1 0 -1000
DWIDTH1 0 -22
BITMAP 
F3C0
F3C0
6180
3300
7F80
7F80
0C00
0C00
7F80
7F80
0C00
0C00
1E00
1E00
ENDCHAR
STARTCHAR ordfeminine
ENCODING 187
SWIDTH 455 0
DWIDTH 10 0
BBX 8 10 1 4
VVECTOR 5 18
SWIDTH1 0 -1000
DWIDTH1 0 -22
BITMAP 
7E
FE
C6
C6
C6
FF
7F
00
FF
FF
ENDCHAR
STARTCHAR ordmasculine
ENCODING 188
SWIDTH 409 0
DWIDTH 9 0
BBX 7 10 1 4
VVECTOR 5 18
SWIDTH1 0 -1000
DWIDTH1 0 -22
BITMAP 
7C
FE
C6
C6
C6
FE
7C
00
FE
FE
ENDCHAR
STARTCHAR ae
ENCODING 190
SWIDTH 636 0
DWIDTH 14 0
BBX 12 10 1 0
VVECTOR 7 18
SWIDTH1 0 -1000
DWIDTH1 0 -22
BITMAP 
7DE0
FFF0
C630
0630
7FF0
FFF0
C600
C630
FFF0
7DE0
ENDCHAR
STARTCHAR oslash
ENCODING 191
SWIDTH 409 0
DWIDTH 9 0
BBX 9 10 0 0
VVECTOR 5 18
SWIDTH1 0 -1000
DWIDTH1 0 -22
BITMAP 
3E80
7F00
6300
6700
6B00
6B00
7300
6300
7F00
BE00
ENDCHAR
STARTCHAR questiondown
ENCODING 192
SWIDTH 500 0
DWIDTH 11 0
BBX 8 14 1 0
VVECTOR 5 18
SWIDTH1 0 -1000
DWIDTH1 0 -22
BITMAP 
18
18
00
18
18
18
38
70
E0
C0
C3
C3
FF
7E
ENDCHAR
STARTCHAR exclamdown
ENCODING 193
SWIDTH 318 0
DWIDTH 7 0
BBX 2 14 2 0
VVECTOR 3 18
SWIDTH1 0 -1000
DWIDTH1 0 -22
BITMAP 
C0
C0
00
C0
C0
C0
C0
C0
C0
C0
C0
C0
C0
C0
ENDCHAR
STARTCHAR guillemotleft
ENCODING 199
SWIDTH 455 0
DWIDTH 10 0
BBX 8 9 1 0
VVECTOR 5 18
SWIDTH1 0 -1000
DWIDTH1 0 -22
BITMAP 
09
12
24
48
90
48
24
12
09
ENDCHAR
STARTCHAR guillemotright
ENCODING 200
SWIDTH 455 0
DWIDTH 10 0
BBX 8 9 1 0
VVECTOR 5 18
SWIDTH1 0 -1000
DWIDTH1 0 -22
BITMAP 
90
48
24
12
09
12
24
48
90
ENDCHAR
STARTCHAR ellipsis
ENCODING 201
SWIDTH 682 0
DWIDTH 15 0
BBX 12 2 2 0
VVECTOR 8 18
SWIDTH1 0 -1000
DWIDTH1 0 -22
BITMAP 
C630
C630
ENDCHAR
STARTCHAR uni00A0
ENCODING 202
SWIDTH 455 0
DWIDTH 10 0
BBX 0 0 10 -4
VVECTOR 10 -4
SWIDTH1 0 0
DWIDTH1 0 0
BITMAP 
ENDCHAR
STARTCHAR Agrave
ENCODING 203
SWIDTH 545 0
DWIDTH 12 0
BBX 10 18 1 0
VVECTOR 6 18
SWIDTH1 0 -1000
DWIDTH1 0 -22
BITMAP 
1000
0800
0400
0000
3F00
7F80
6180
6180
6180
6180
6180
7F80
7F80
6180
6180
6180
F3C0
F3C0
ENDCHAR
STARTCHAR Atilde
ENCODING 204
SWIDTH 545 0
DWIDTH 12 0
BBX 10 17 1 0
VVECTOR 6 18
SWIDTH1 0 -1000
DWIDTH1 0 -22
BITMAP 
1900
2600
0000
3F00
7F80
6180
6180
6180
6180
6180
7F80
7F80
6180
6180
6180
F3C0
F3C0
ENDCHAR
STARTCHAR Otilde
ENCODING 205
SWIDTH 455 0
DWIDTH 10 0
BBX 8 17 1 0
VVECTOR 5 18
SWIDTH1 0 -1000
DWIDTH1 0 -22
BITMAP 
32
4C
00
7E
FF
C3
C3
C3
C3
C3
C3
C3
C3
C3
C3
FF
7E
ENDCHAR
STARTCHAR OE
ENCODING 206
SWIDTH 773 0
DWIDTH 17 0
BBX 14 14 2 0
VVECTOR 9 18
SWIDTH1 0 -1000
DWIDTH1 0 -22
BITMAP 
7DFC
FFFC
C30C
C30C
C300
C300
C3E0
C3E0
C300
C300
C30C
C30C
FFFC
7DFC
ENDCHAR
STARTCHAR oe
ENCODING 207
SWIDTH 636 0
DWIDTH 14 0
BBX 12 10 1 0
VVECTOR 7 18
SWIDTH1 0 -1000
DWIDTH1 0 -22
BITMAP 
7BE0
FFF0
C630
C630
C7F0
C7F0
C600
C630
FFF0
7BE0
ENDCHAR
STARTCHAR endash
ENCODING 208
SWIDTH 318 0
DWIDTH 7 0
BBX 5 2 1 4
VVECTOR 4 18
SWIDTH1 0 -1000
DWIDTH1 0 -22
BITMAP 
F8
F8
ENDCHAR
STARTCHAR emdash
ENCODING 209
SWIDTH 500 0
DWIDTH 11 0
BBX 9 2 1 4
VVECTOR 6 18
SWIDTH1 0 -1000
DWIDTH1 0 -22
BITMAP 
FF80
FF80
ENDCHAR
STARTCHAR quotedblleft
ENCODING 210
SWIDTH 455 0
DWIDTH 10 0
BBX 6 4 2 11
VVECTOR 5 18
SWIDTH1 0 -1000
DWIDTH1 0 -22
BITMAP 
44
88
CC
CC
ENDCHAR
STARTCHAR quotedblright
ENCODING 211
SWIDTH 455 0
DWIDTH 10 0
BBX 6 4 2 11
VVECTOR 5 18
SWIDTH1 0 -1000
DWIDTH1 0 -22
BITMAP 
CC
CC
44
88
ENDCHAR
STARTCHAR quoteleft
ENCODING 212
SWIDTH 273 0
DWIDTH 6 0
BBX 2 4 2 11
VVECTOR 3 18
SWIDTH1 0 -1000
DWIDTH1 0 -22
BITMAP 
40
80
C0
C0
ENDCHAR
STARTCHAR quoteright
ENCODING 213
SWIDTH 273 0
DWIDTH 6 0
BBX 2 4 2 11
VVECTOR 3 18
SWIDTH1 0 -1000
DWIDTH1 0 -22
BITMAP 
C0
C0
40
80
ENDCHAR
STARTCHAR lozenge
ENCODING 215
SWIDTH 591 0
DWIDTH 13 0
BBX 11 11 1 2
VVECTOR 7 18
SWIDTH1 0 -1000
DWIDTH1 0 -22
BITMAP 
0400
0E00
1B00
3180
60C0
C060
60C0
3180
1B00
0E00
0400
ENDCHAR
STARTCHAR ydieresis
ENCODING 216
SWIDTH 455 0
DWIDTH 10 0
BBX 9 17 0 -4
VVECTOR 5 18
SWIDTH1 0 -1000
DWIDTH1 0 -22
BITMAP 
2200
0000
0000
F780
F780
6300
6300
6300
6300
6300
6300
7F00
3F00
0300
6300
7F00
3E00
ENDCHAR
STARTCHAR Ydieresis
ENCODING 217
SWIDTH 1091 0
DWIDTH 24 0
BBX 21 20 1 -4
VVECTOR 12 18
SWIDTH1 0 -1000
DWIDTH1 0 -22
BITMAP 
000030
000730
000F80
001F98
001F98
000F00
000060
000060
000000
000000
000000
000000
018000
798000
FC0000
FCC000
7CC000
380000
030000
030000
ENDCHAR
STARTCHAR missing
ENCODING -1
SWIDTH 500 0
DWIDTH 11 0
BBX 9 12 1 0
VVECTOR 6 18
SWIDTH1 0 -1000
DWIDTH1 0 -22
BITMAP 
FF80
8080
8080
8080
8080
8080
8080
8080
8080
8080
8080
FF80
ENDCHAR
ENDFONT
